<?xml version="1.0" encoding="utf-8"?>
<!-- Generator: Adobe Illustrator 22.1.0, SVG Export Plug-In . SVG Version: 6.00 Build 0)  -->
<svg version="1.1" id="Layer_3" xmlns="http://www.w3.org/2000/svg" xmlns:xlink="http://www.w3.org/1999/xlink" x="0px" y="0px"
	 viewBox="0 0 393 630" style="enable-background:new 0 0 393 630;" xml:space="preserve">
<style type="text/css">
	.st0{fill:#4D4D4D;}
</style>
<path class="st0" d="M368.1,229c-11.3-3.1-26-3-35.6-2.2c-1,0.1-6.7,6.8-7.8,6.8c-1.3,0,2.1-7.1,0.8-6.9c-8.4,0.8-14,1.8-21.7,3.5
	c-1.1,0.2-6.7,10.2-7.7,10.5c-1.1,0.3,2.3-9.1,1.1-8.8c-6.2,1.8-13.2,3.6-19.9,6.8c-1,0.5-6.3,10.5-7.3,11c-1,0.5,0.9-8-0.1-7.5
	c-11.7,5.4-15.6,5.8-24.5,11.8c21-14,22.6-14.5,36.2-25.9c1.4-1.1-12.1-3.2-10.8-4.3c1.4-1.2,19.5-2.3,20.8-3.5
	c8.9-7.9,17-17.3,23.7-25.3c1.3-1.5-13.3-2.6-12.1-4.2c1.2-1.5,18.1-3.4,19.2-4.9c7.4-10.2,13.1-17.7,18.6-30.4
	c0.9-2.1-11.9-0.7-11-2.9c0.5-1.3,14.6-6,15.1-7.3c6.8-16.8,9.8-28.8,11.6-47.9c0.1-0.7-0.5-1.2-1.2-0.9
	c-17.7,6.9-30.7,12.9-42.5,23.2c-1.3,1.1-2.1,15.4-3.5,16.3c-1.7,1.2-4.1-11.1-5.7-9.8c-10,9.1-16.4,15.9-24.7,25.5
	c-1.2,1.3,1.2,19.7,0.1,21.1c-1.2,1.5-5.9-14-7.1-12.5c-6.3,8.4-13.7,17.4-19.3,28.1c-0.8,1.6,2.1,19.7,1.2,21.3
	c-0.8,1.5-6.5-11.2-7.4-9.7c-9.9,18.3-14.4,28.8-21.4,50.8c6.9-25.4,12.4-46.6,16.2-65.4c0.4-1.9-11.5,5.3-11.2,3.4
	c0.4-2,14-14.9,14.3-16.9c2.2-12.7,3.5-25.3,3.8-36.6c0.1-2.1-12.1,6.6-12.1,4.5c0-2,12.2-15,12.2-17c-0.4-13.7-3.3-24.3-6.7-38.9
	c-0.6-2.4-9.8,7.3-10.5,4.9c-0.4-1.4,7.9-14.9,7.5-16.3c-4.4-15.7-10.5-32.8-18.5-52.7c-8,19.9-14.1,37-18.5,52.7
	c-0.4,1.4,7.9,14.9,7.5,16.3c-0.6,2.4-9.9-7.2-10.5-4.9c-3.4,14.6-6.3,25.1-6.7,38.9c-0.1,2,12.2,14.9,12.2,17
	c0,2.1-12.2-6.6-12.1-4.5c0.4,11.3,1.7,24,3.8,36.6c0.3,1.9,13.9,14.9,14.3,16.9c0.3,1.8-11.6-5.3-11.2-3.4
	c3.8,18.8,9.2,40,16.2,65.4c-7-22-11.5-32.5-21.4-50.8c-0.9-1.6-6.6,11.2-7.4,9.7c-0.8-1.7,2.1-19.7,1.2-21.3
	c-5.6-10.7-13-19.8-19.3-28.1c-1.2-1.5-5.9,14-7.1,12.5c-1.1-1.4,1.3-19.7,0.1-21.1c-8.3-9.5-14.7-16.3-24.7-25.5
	c-1.5-1.4-3.9,11-5.7,9.8c-1.3-1-2.2-15.2-3.5-16.3c-11.8-10.3-24.8-16.3-42.5-23.2c-0.7-0.3-1.2,0.1-1.2,0.9
	c1.8,19,4.8,31,11.6,47.9c0.5,1.3,14.6,6,15.1,7.3c0.9,2.1-11.9,0.8-11,2.9c5.5,12.7,11.2,20.1,18.6,30.4c1.1,1.5,18,3.4,19.2,4.9
	c1.2,1.5-13.4,2.7-12.1,4.2c6.7,8,14.8,17.4,23.7,25.3c1.4,1.2,19.4,2.3,20.8,3.5c1.3,1.1-12.1,3.2-10.8,4.3
	c13.6,11.4,15.2,11.9,36.2,25.9c-9-6-12.8-6.4-24.5-11.8c-1-0.5,0.9,8-0.1,7.5c-1-0.5-6.3-10.5-7.3-11c-6.8-3.2-13.7-5-19.9-6.8
	c-1.1-0.3,2.3,9.1,1.1,8.8c-1.1-0.3-6.7-10.2-7.7-10.5c-7.6-1.7-13.3-2.7-21.7-3.5c-1.3-0.1,2.1,6.9,0.8,6.9c-1,0-6.7-6.7-7.8-6.8
	c-9.7-0.7-24.3-0.9-35.6,2.2c-0.4,0.1-0.6,0.5-0.3,0.9c7.9,8.7,17.3,15.1,29.4,21.4c0.8,0.4,9.5-2.4,10.2-2c1.2,0.7-5.6,4.8-4.4,5.5
	c7.4,4.3,13,5.8,20.5,8.2c1.1,0.3,10.2-5,11.3-4.7c1.2,0.3-5.7,6.3-4.5,6.5c6.3,1.5,13.8,3.1,21.1,3.8c1.1,0.1,10.5-6,11.6-6
	c1.1,0.1-4.8,7-3.7,7.1c13.5,1.7,24.1,1.3,35.4,1.2c-23,11-41,20-45,33c21.6,0,41.8-7.6,57.2-20.5c-10.5,51.9-44.9,91-85.7,91
	c-49.2,0-89-56.6-89-124c0-33.1,9.6-63,25.2-85H42c-12.8,23.8-20.4,53.2-20.4,85c0,72.3,34.4,111.2,64.1,160.4
	c17.2,29.7,32.2,55.6,23.2,101.6c-5.3,27.1-35.5,37.3-48.7,42.2s-30.3,15.1-30.3,22.8c0,15.5,43,29,96,29s96-14.5,96-30
	c0-8.9-16.3-15.9-38.6-21c12.8,5,26.2,11.5,26.2,17.5c0,11.3-35,18.5-70.8,18.5s-67.8-4-67.8-12.5s17.9-14.9,34-23.5
	c32.2-17,30.8-54.4,42-96c4.4-16.4,13-35.5,19-46c25.5-41.4,53.9-76,62-131.1c15.5,13.5,36.3,21.6,58.5,21.6c-4-13-22-22-45-33
	c11.3,0.2,21.9,0.5,35.4-1.2c1.1-0.1-4.8-7.1-3.7-7.1c1.1-0.1,10.5,6.1,11.6,6c7.3-0.6,14.8-2.3,21.1-3.8c1.2-0.3-5.6-6.2-4.5-6.5
	c1.1-0.3,10.2,5,11.3,4.7c7.5-2.3,13-3.9,20.5-8.2c1.2-0.7-5.6-4.8-4.4-5.5c0.7-0.4,9.4,2.4,10.2,2c12.1-6.3,21.5-12.7,29.4-21.4
	C368.6,229.5,368.5,229.1,368.1,229z"/>
</svg>
